<svg xmlns="http://www.w3.org/2000/svg" xmlns:xlink="http://www.w3.org/1999/xlink" viewBox="0 0 443.71 151.61"><defs><style>.cls-1{fill:none;}.cls-2{clip-path:url(#clip-path);}.cls-3{fill:url(#Gradiente_sem_nome_44);}.cls-4{clip-path:url(#clip-path-2);}.cls-5{fill:url(#Gradiente_sem_nome_44-2);}.cls-6{clip-path:url(#clip-path-3);}.cls-7{fill:url(#Gradiente_sem_nome_44-3);}.cls-8{clip-path:url(#clip-path-4);}.cls-9{fill:url(#Gradiente_sem_nome_44-4);}.cls-10{clip-path:url(#clip-path-5);}.cls-11{fill:url(#Gradiente_sem_nome_44-5);}.cls-12{clip-path:url(#clip-path-6);}.cls-13{fill:url(#Gradiente_sem_nome_44-6);}.cls-14{clip-path:url(#clip-path-7);}.cls-15{fill:url(#Gradiente_sem_nome_47);}.cls-16{clip-path:url(#clip-path-8);}.cls-17{fill:url(#Gradiente_sem_nome_47-2);}.cls-18{clip-path:url(#clip-path-9);}.cls-19{fill:url(#Gradiente_sem_nome_47-3);}.cls-20{fill:#12100b;}.cls-21{fill:#335ba7;}.cls-22{fill:#fff;}</style><clipPath id="clip-path" transform="translate(0 0)"><path class="cls-1" d="M24,3.26l0,0a11.15,11.15,0,0,0,0,15.76L68.51,63.59a11.15,11.15,0,0,0,15.76,0l0,0a11.15,11.15,0,0,0,0-15.76L39.76,3.26A11.17,11.17,0,0,0,24,3.26"/></clipPath><linearGradient id="Gradiente_sem_nome_44" x1="-323.32" y1="274.93" x2="-322.32" y2="274.93" gradientTransform="matrix(66.85, 0, 0, -66.85, 21635.02, 18413.75)" gradientUnits="userSpaceOnUse"><stop offset="0" stop-color="#31abbd"/><stop offset="0.2" stop-color="#31a2ba"/><stop offset="0.54" stop-color="#3188b3"/><stop offset="0.97" stop-color="#325fa8"/><stop offset="1" stop-color="#325ba7"/></linearGradient><clipPath id="clip-path-2" transform="translate(0 0)"><path class="cls-1" d="M91.42,24.86,68.48,47.8a11.15,11.15,0,0,0,0,15.76l0,0a11.15,11.15,0,0,0,15.76,0l22.94-22.94a11.14,11.14,0,0,0,0-15.77l0,0a11.14,11.14,0,0,0-15.77,0"/></clipPath><linearGradient id="Gradiente_sem_nome_44-2" x1="-322.32" y1="274.97" x2="-321.32" y2="274.97" gradientTransform="matrix(45.26, 0, 0, -45.26, 14652.85, 12489.46)" xlink:href="#Gradiente_sem_nome_44"/><clipPath id="clip-path-3" transform="translate(0 0)"><path class="cls-1" d="M48.89,67.36,4.35,111.89a11.16,11.16,0,0,0,0,15.77l0,0a11.15,11.15,0,0,0,15.76,0L64.68,83.14a11.15,11.15,0,0,0,0-15.76l0,0a11.13,11.13,0,0,0-15.76,0"/></clipPath><linearGradient id="Gradiente_sem_nome_44-3" x1="-323.32" y1="274.93" x2="-322.32" y2="274.93" gradientTransform="matrix(66.85, 0, 0, -66.85, 21615.4, 18477.85)" xlink:href="#Gradiente_sem_nome_44"/><clipPath id="clip-path-4" transform="translate(0 0)"><path class="cls-1" d="M4.38,22.84l0,0a11.15,11.15,0,0,0,0,15.76L48.89,83.17a11.15,11.15,0,0,0,15.76,0l0,0a11.15,11.15,0,0,0,0-15.76L20.14,22.84a11.15,11.15,0,0,0-15.76,0"/></clipPath><linearGradient id="Gradiente_sem_nome_44-4" x1="-323.32" y1="274.93" x2="-322.32" y2="274.93" gradientTransform="matrix(66.85, 0, 0, -66.85, 21615.4, 18433.33)" xlink:href="#Gradiente_sem_nome_44"/><clipPath id="clip-path-5" transform="translate(0 0)"><path class="cls-1" d="M68.43,86.94,23.9,131.47a11.14,11.14,0,0,0,0,15.77l0,0a11.15,11.15,0,0,0,15.76,0l44.54-44.54a11.15,11.15,0,0,0,0-15.76l0,0a11.14,11.14,0,0,0-15.77,0"/></clipPath><linearGradient id="Gradiente_sem_nome_44-5" x1="-323.32" y1="274.93" x2="-322.32" y2="274.93" gradientTransform="matrix(66.85, 0, 0, -66.85, 21634.94, 18497.43)" xlink:href="#Gradiente_sem_nome_44"/><clipPath id="clip-path-6" transform="translate(0 0)"><path class="cls-1" d="M68.43,86.94l0,0a11.15,11.15,0,0,0,0,15.76l22.94,23a11.16,11.16,0,0,0,15.77,0l0,0a11.15,11.15,0,0,0,0-15.76L84.2,86.94a11.14,11.14,0,0,0-15.77,0"/></clipPath><linearGradient id="Gradiente_sem_nome_44-6" x1="-322.32" y1="274.97" x2="-321.32" y2="274.97" gradientTransform="matrix(45.26, 0, 0, -45.26, 14652.78, 12551.54)" xlink:href="#Gradiente_sem_nome_44"/><clipPath id="clip-path-7" transform="translate(0 0)"><path class="cls-1" d="M68.4,47.72a11.15,11.15,0,0,0,0,15.76l0,0a11.16,11.16,0,0,0,15.77,0l0,0a11.15,11.15,0,0,0,0-15.76l-7.9-7.91Z"/></clipPath><linearGradient id="Gradiente_sem_nome_47" x1="-319.17" y1="275.1" x2="-318.17" y2="275.1" gradientTransform="matrix(22.34, 0, 0, -22.34, 7194.62, 6198.99)" gradientUnits="userSpaceOnUse"><stop offset="0" stop-color="#135090"/><stop offset="0.34" stop-color="#18488a"/><stop offset="0.86" stop-color="#263479"/><stop offset="1" stop-color="#2a2d74"/></linearGradient><clipPath id="clip-path-8" transform="translate(0 0)"><path class="cls-1" d="M68.35,86.85l0,0a11.15,11.15,0,0,0,0,15.76l7.9,7.9,7.91-7.9a11.15,11.15,0,0,0,0-15.76l0,0a11.17,11.17,0,0,0-15.77,0"/></clipPath><linearGradient id="Gradiente_sem_nome_47-2" x1="-319.17" y1="275.13" x2="-318.17" y2="275.13" gradientTransform="matrix(22.34, 0, 0, -22.34, 7194.55, 6242.77)" xlink:href="#Gradiente_sem_nome_47"/><clipPath id="clip-path-9" transform="translate(0 0)"><path class="cls-1" d="M48.81,67.27,40.9,75.18l7.91,7.9a11.15,11.15,0,0,0,15.76,0l0,0a11.13,11.13,0,0,0,0-15.76l0,0a11.15,11.15,0,0,0-15.76,0"/></clipPath><linearGradient id="Gradiente_sem_nome_47-3" x1="-320.24" y1="275.06" x2="-319.24" y2="275.06" gradientTransform="matrix(26.95, 0, 0, -26.95, 8672.76, 7489.86)" xlink:href="#Gradiente_sem_nome_47"/></defs><title>Ativo 1</title><g id="Camada_2" data-name="Camada 2"><g id="Camada_1-2" data-name="Camada 1"><g class="cls-2"><rect class="cls-3" x="19.62" width="69.03" height="67.94"/></g><g class="cls-4"><rect class="cls-5" x="64.13" y="21.59" width="47.43" height="46.35"/></g><g class="cls-6"><rect class="cls-7" y="64.09" width="69.03" height="67.94"/></g><g class="cls-8"><rect class="cls-9" y="19.58" width="69.03" height="67.94"/></g><g class="cls-10"><rect class="cls-11" x="19.54" y="83.67" width="69.03" height="67.94"/></g><g class="cls-12"><rect class="cls-13" x="64.06" y="83.67" width="47.43" height="46.35"/></g><g class="cls-14"><rect class="cls-15" x="64.05" y="39.81" width="24.51" height="28.04"/></g><g class="cls-16"><rect class="cls-17" x="63.98" y="83.59" width="24.51" height="26.95"/></g><g class="cls-18"><rect class="cls-19" x="40.9" y="64.01" width="28.04" height="23.43"/></g><path class="cls-20" d="M145.52,56.81a22.75,22.75,0,0,0-7.88-6.23,27.39,27.39,0,0,0-21.6-.2,24.7,24.7,0,0,0-8.06,5.8,26.49,26.49,0,0,0-5.27,8.6,28.89,28.89,0,0,0-1.88,10.44v.19a27.92,27.92,0,0,0,2,10.87,25.34,25.34,0,0,0,5.65,8.45,24.8,24.8,0,0,0,8.6,5.51,29.48,29.48,0,0,0,10.77,1.93,27.49,27.49,0,0,0,12.27-2.56,26,26,0,0,0,8.89-7.1l-8.4-7.44a22.42,22.42,0,0,1-6,4.06,16.38,16.38,0,0,1-6.57,1.26,13.18,13.18,0,0,1-8.26-2.56,12.32,12.32,0,0,1-4.4-7.59h36c.06-.71.11-1.38.14-2s.05-1.26.05-1.83a37.06,37.06,0,0,0-1.5-10.58,26,26,0,0,0-4.63-9M114.76,71a15,15,0,0,1,3.72-8A9.87,9.87,0,0,1,126,60a9.64,9.64,0,0,1,7.45,3,14.36,14.36,0,0,1,3.47,8Z" transform="translate(0 0)"/><rect class="cls-20" x="220.52" y="29.93" width="15.89" height="13.24"/><rect class="cls-20" x="221.85" y="49.79" width="14.56" height="51.63"/><path class="cls-20" d="M189.53,61.7v39.72H204.1V61.7H216V49.79H204.1v-2q0-5.61,5.28-5.61a16.49,16.49,0,0,1,3.46.34,26.53,26.53,0,0,1,3.17.92V31.3a28.21,28.21,0,0,0-4.49-1.06,40,40,0,0,0-5.94-.39q-7.83,0-11.89,4.06t-4.16,12.57l.05,3.31-15.93,0v-2q0-5.61,5.28-5.61a16.56,16.56,0,0,1,3.46.34,27.08,27.08,0,0,1,3.17.92V31.36a28.21,28.21,0,0,0-4.49-1.06,38.74,38.74,0,0,0-5.94-.39q-7.83,0-11.89,4.06t-4.16,12.57v3.25h-6.62V61.7h6.62v39.72h14.57V61.7Z" transform="translate(0 0)"/><path class="cls-20" d="M275.93,88.19a13.26,13.26,0,0,1-6.46,1.51A12.74,12.74,0,0,1,264,88.58a12.6,12.6,0,0,1-4.18-3.06A13.29,13.29,0,0,1,257.19,81a17,17,0,0,1-.92-5.63v-.19a16.26,16.26,0,0,1,.92-5.49,13.85,13.85,0,0,1,2.62-4.51,12.45,12.45,0,0,1,4-3.06,11.37,11.37,0,0,1,5.1-1.12,13.11,13.11,0,0,1,6.65,1.55,24.4,24.4,0,0,1,5.2,4.18l9-9.71a27.49,27.49,0,0,0-8.54-6.41A28.29,28.29,0,0,0,269,48.24a27.63,27.63,0,0,0-11,2.14,26,26,0,0,0-8.59,5.82,26.93,26.93,0,0,0-5.64,8.64,27.3,27.3,0,0,0-2,10.49v.2a26.89,26.89,0,0,0,2,10.43A26.16,26.16,0,0,0,258,100.28a27.14,27.14,0,0,0,10.82,2.14q7.77,0,12.63-2.67a33.27,33.27,0,0,0,8.64-6.85l-8.64-8.73a27.59,27.59,0,0,1-5.49,4" transform="translate(0 0)"/><path class="cls-20" d="M332.57,54.85a19.14,19.14,0,0,0-7.33-4.3,33.68,33.68,0,0,0-10.72-1.5A50,50,0,0,0,303,50.21a60.11,60.11,0,0,0-9.18,3l3.79,11.21a51.62,51.62,0,0,1,7-2.08,37,37,0,0,1,7.73-.73q5.69,0,8.58,2.42t2.89,7v.66a41.54,41.54,0,0,0-5.67-1.53,35.92,35.92,0,0,0-6.82-.57,32.35,32.35,0,0,0-8.35,1,19.17,19.17,0,0,0-6.48,3,14,14,0,0,0-4.25,5.06A16,16,0,0,0,290.69,86v.59a15.79,15.79,0,0,0,1.39,6.82,14.57,14.57,0,0,0,3.78,5,16.07,16.07,0,0,0,5.6,3,22.65,22.65,0,0,0,6.83,1,20.89,20.89,0,0,0,9.09-1.79,20,20,0,0,0,6.41-4.78v5.6h14.57v-30A29.78,29.78,0,0,0,337,62a17.24,17.24,0,0,0-4.39-7.1m-7.45,28a8.15,8.15,0,0,1-3.2,6.68,13.17,13.17,0,0,1-8.5,2.56,9.69,9.69,0,0,1-5.9-1.67,5.53,5.53,0,0,1-2.26-4.72v-.2A6.13,6.13,0,0,1,308,80.07a13.37,13.37,0,0,1,7.57-1.86,23.54,23.54,0,0,1,5.16.54,23,23,0,0,1,4.38,1.42Z" transform="translate(0 0)"/><path class="cls-20" d="M376.55,88.19a13.22,13.22,0,0,1-6.45,1.51,12.78,12.78,0,0,1-5.44-1.12,12.46,12.46,0,0,1-4.17-3.06A13.31,13.31,0,0,1,357.81,81a17,17,0,0,1-.92-5.63v-.19a16.26,16.26,0,0,1,.92-5.49,13.87,13.87,0,0,1,2.63-4.51,12.34,12.34,0,0,1,4-3.06A11.35,11.35,0,0,1,369.51,61a13.09,13.09,0,0,1,6.65,1.55,24.16,24.16,0,0,1,5.2,4.18l9-9.71a27.53,27.53,0,0,0-8.55-6.41,28.25,28.25,0,0,0-12.23-2.33,27.66,27.66,0,0,0-11,2.14A26.11,26.11,0,0,0,350,56.2a26.9,26.9,0,0,0-5.63,8.64,27.31,27.31,0,0,0-2,10.49v.2a26.9,26.9,0,0,0,2,10.43,26.1,26.1,0,0,0,14.22,14.32,27.15,27.15,0,0,0,10.83,2.14q7.75,0,12.62-2.67a33,33,0,0,0,8.64-6.85L382,84.17a27,27,0,0,1-5.49,4" transform="translate(0 0)"/><path class="cls-20" d="M428.45,49.79,417.14,85.06,405.35,49.79H389.8l20.29,52a6.67,6.67,0,0,1-2.08,2.66,5.56,5.56,0,0,1-3,.72,9.82,9.82,0,0,1-3.14-.57,16.4,16.4,0,0,1-3.14-1.45l-4.93,10.62a27.9,27.9,0,0,0,5.89,2.61,23.83,23.83,0,0,0,7.15,1,19.92,19.92,0,0,0,5.8-.77,12.17,12.17,0,0,0,4.49-2.52,18.63,18.63,0,0,0,3.63-4.49,40.51,40.51,0,0,0,3.09-6.71l19.9-53Z" transform="translate(0 0)"/><path class="cls-21" d="M377.08,133.82H329.4a13.24,13.24,0,1,1,0-26.48h47.68a13.24,13.24,0,1,1,0,26.48" transform="translate(0 0)"/><polygon class="cls-22" points="323.94 113.27 328.14 113.27 330.49 122.14 333.24 113.22 336.82 113.22 339.6 122.17 342 113.27 346.12 113.27 341.56 128 337.83 128 335.02 119.03 332.15 128 328.44 128 323.94 113.27"/><path class="cls-22" d="M347.27,113.27h4.14v2.09a9.37,9.37,0,0,1,.78-.89,5.39,5.39,0,0,1,.94-.76,5.11,5.11,0,0,1,1.16-.52,5.5,5.5,0,0,1,3.93.41,4.07,4.07,0,0,1,1.62,1.74,6.69,6.69,0,0,1,2.13-1.75,5.89,5.89,0,0,1,2.67-.59,4.82,4.82,0,0,1,3.63,1.36,5.6,5.6,0,0,1,1.31,4v9.52h-4.15v-8.13a3.44,3.44,0,0,0-.62-2.22,2.23,2.23,0,0,0-1.81-.75,2.35,2.35,0,0,0-1.84.75,3.27,3.27,0,0,0-.67,2.22v8.13h-4.14v-8.13a3.38,3.38,0,0,0-.63-2.22,2.22,2.22,0,0,0-1.8-.75,2.35,2.35,0,0,0-1.84.75,3.22,3.22,0,0,0-.67,2.22v8.13h-4.14Z" transform="translate(0 0)"/><path class="cls-22" d="M376.94,128.17a10.23,10.23,0,0,1-6.27-2.21l1.77-2.73a10,10,0,0,0,2.39,1.31,6.48,6.48,0,0,0,2.22.44,2.36,2.36,0,0,0,1.33-.3.94.94,0,0,0,.42-.8v0a.75.75,0,0,0-.25-.57,1.89,1.89,0,0,0-.67-.43c-.28-.11-.6-.23-1-.34l-1.15-.35c-.51-.15-1-.32-1.54-.53a5.54,5.54,0,0,1-1.4-.82,4,4,0,0,1-1-1.24,3.8,3.8,0,0,1-.39-1.8v-.06a4.5,4.5,0,0,1,.42-2,4.37,4.37,0,0,1,1.14-1.45,5.14,5.14,0,0,1,1.7-.91,7,7,0,0,1,2.08-.29,9.44,9.44,0,0,1,2.83.45,10.41,10.41,0,0,1,2.63,1.24l-1.58,2.86a13.49,13.49,0,0,0-2.13-1,5.67,5.67,0,0,0-1.83-.36,1.93,1.93,0,0,0-1.15.28.89.89,0,0,0-.38.73v0a.72.72,0,0,0,.25.53,2.62,2.62,0,0,0,.65.44,9.56,9.56,0,0,0,.94.39l1.14.39c.51.16,1,.36,1.55.58a6.41,6.41,0,0,1,1.42.84,4,4,0,0,1,1,1.2,3.38,3.38,0,0,1,.41,1.71v.06a4.87,4.87,0,0,1-.43,2.11,3.93,3.93,0,0,1-1.18,1.46,5.41,5.41,0,0,1-1.79.86,8.13,8.13,0,0,1-2.2.29" transform="translate(0 0)"/></g></g></svg>